<svg width="512" height="512" viewBox="0 0 512 512" fill="none" xmlns="http://www.w3.org/2000/svg">
  <!-- Background -->
  <rect width="512" height="512" rx="128" fill="#2563eb"/>
  
  <!-- Icon Design - Club/Building -->
  <g transform="translate(128, 128)">
    <!-- Building -->
    <rect x="40" y="80" width="176" height="176" rx="8" fill="white" opacity="0.95"/>
    
    <!-- Windows -->
    <rect x="60" y="100" width="40" height="40" rx="4" fill="#2563eb"/>
    <rect x="108" y="100" width="40" height="40" rx="4" fill="#2563eb"/>
    <rect x="156" y="100" width="40" height="40" rx="4" fill="#2563eb"/>
    
    <rect x="60" y="148" width="40" height="40" rx="4" fill="#2563eb"/>
    <rect x="108" y="148" width="40" height="40" rx="4" fill="#2563eb"/>
    <rect x="156" y="148" width="40" height="40" rx="4" fill="#2563eb"/>
    
    <!-- Door -->
    <rect x="108" y="196" width="40" height="60" rx="4" fill="#1e40af"/>
    
    <!-- Roof -->
    <path d="M 128 60 L 40 90 L 216 90 Z" fill="white" opacity="0.95"/>
    
    <!-- Flag -->
    <rect x="120" y="20" width="4" height="50" fill="white"/>
    <path d="M 124 20 L 124 40 L 144 30 Z" fill="#ef4444"/>
  </g>
  
  <!-- Letter C -->
  <text x="256" y="380" font-family="Arial, sans-serif" font-size="120" font-weight="bold" fill="white" text-anchor="middle">C</text>
</svg>
